# xmcd
# Track frame offsets:
# 150
# 21563
# 39566
# 55069
# 71573
# 87160
# 102541
# 119248
# 133396
# 151402
# 170126
# 183203
# 202409
#
# Disc length: 2844 seconds
# Revision: 0
# Processed by: cddbd v1.5.2PL0 Copyright (c) Steve Scherf et al.
# Submitted via: VisiTrax 2.11.3.279 - For more info visit www.synapsa.com
#
DISCID=cc0b1a0d
DTITLE=Adam Harvey - Harvey's Bar (The Backyard Sesions)
DYEAR=2015
DGENRE=Country
TTITLE0=Harveys Backyard Bar
TTITLE1=Alcholaday
TTITLE2=Whose Arms You Think Youre In
TTITLE3=Yeah I Like Beer
TTITLE4=A Little Less Lonley
TTITLE5=Party At The Harveys
TTITLE6=Paper And Pen
TTITLE7=King Of The Bar Room
TTITLE8=Bartender Blues
TTITLE9=Just Another Player In The Band
TTITLE10=Misery And Gin
TTITLE11=The Nips Are Getting Bigger
TTITLE12=Tonight The Bottle Let Me Down
EXTD=
EXTT0=
EXTT1=
EXTT2=
EXTT3=
EXTT4=
EXTT5=
EXTT6=
EXTT7=
EXTT8=
EXTT9=
EXTT10=
EXTT11=
EXTT12=
PLAYORDER=
